<svg xmlns="http://www.w3.org/2000/svg" width="134" height="60" viewBox="0 0 134 60"><defs><clipPath id="vdaqa"><path d="M0 59.843h133.142V.43H0z"/></clipPath></defs><g><g><g><g><path fill="#fc8353" d="M59.415 30.137c0 16.406-13.3 29.706-29.707 29.706C13.3 59.843 0 46.543 0 30.137 0 13.73 13.3.43 29.708.43c16.407 0 29.707 13.3 29.707 29.707"/></g></g><g><path fill="#fff" d="M18.215 25.18h2.644v12.245h-2.644v-1.762c-1.005 1.395-2.425 2.081-4.287 2.081-1.69 0-3.11-.613-4.31-1.862-1.2-1.249-1.788-2.792-1.788-4.58 0-1.813.587-3.33 1.788-4.58 1.2-1.249 2.62-1.862 4.31-1.862 1.862 0 3.282.686 4.287 2.058zm-1.102 8.939c.734-.76 1.102-1.69 1.102-2.817 0-1.126-.368-2.057-1.102-2.793-.736-.758-1.666-1.126-2.768-1.126-1.102 0-2.033.368-2.767 1.126-.736.736-1.102 1.667-1.102 2.793 0 1.128.366 2.057 1.102 2.817.734.734 1.665 1.102 2.767 1.102 1.102 0 2.032-.368 2.768-1.102z"/></g><g/><g clip-path="url(#vdaqa)"><path fill="#fff" d="M25.42 37.419h2.644V19.54H25.42z"/></g><g clip-path="url(#vdaqa)"><path fill="#fff" d="M32.6 37.419h2.644V19.54H32.6z"/></g><g clip-path="url(#vdaqa)"><path fill="#fff" d="M48.034 25.17h2.818l-4.703 12.639c-1.176 3.159-3.16 4.677-5.977 4.506v-2.473c1.665.097 2.597-.712 3.259-2.401l.12-.245L38.36 25.17h2.89l3.649 8.891z"/></g><g clip-path="url(#vdaqa)"><path fill="#231f20" d="M78.463 30.105v7.52H75.82v-7.25c0-1.838-1.053-2.841-2.744-2.841-1.86 0-3.11 1.151-3.11 3.526v6.565H67.32V20.48h2.644v6.466c.809-1.249 2.057-1.886 3.797-1.886 2.816 0 4.702 1.91 4.702 5.045"/></g><g clip-path="url(#vdaqa)"><path fill="#231f20" d="M83.975 36.08c-1.25-1.248-1.885-2.766-1.885-4.58 0-1.811.636-3.33 1.885-4.58 1.25-1.248 2.792-1.86 4.58-1.86 1.812 0 3.331.612 4.58 1.86 1.25 1.25 1.886 2.769 1.886 4.58 0 1.814-.636 3.332-1.886 4.58-1.249 1.251-2.768 1.863-4.58 1.863-1.788 0-3.33-.612-4.58-1.862m4.585-.71c1.079 0 1.987-.368 2.722-1.102.736-.736 1.105-1.665 1.105-2.768 0-1.102-.369-2.033-1.105-2.767-.735-.736-1.643-1.104-2.722-1.104-1.08 0-1.987.368-2.722 1.104-.735.734-1.104 1.665-1.104 2.767 0 1.103.369 2.032 1.104 2.768.735.734 1.643 1.102 2.722 1.102"/></g><g clip-path="url(#vdaqa)"><path fill="#231f20" d="M116.893 30.032v7.593h-2.644v-7.422c0-1.689-.907-2.668-2.377-2.668-1.642 0-2.671 1.076-2.671 3.231v6.859h-2.644v-7.422c0-1.689-.833-2.668-2.303-2.668-1.59 0-2.718 1.102-2.718 3.231v6.859H98.89V25.378h2.646v1.47c.782-1.2 1.96-1.788 3.502-1.788 1.567 0 2.719.637 3.479 1.936.806-1.299 2.057-1.936 3.747-1.936 2.767 0 4.629 1.936 4.629 4.972"/></g><g clip-path="url(#vdaqa)"><path fill="#231f20" d="M123.298 32.628c.391 1.862 1.886 2.891 3.92 2.891 1.395 0 2.448-.514 3.158-1.52l2.18 1.275c-1.2 1.788-2.988 2.669-5.364 2.669-1.983 0-3.6-.612-4.824-1.812-1.225-1.225-1.838-2.769-1.838-4.629 0-1.838.613-3.356 1.813-4.58 1.2-1.249 2.767-1.862 4.655-1.862 1.786 0 3.256.637 4.406 1.886 1.152 1.249 1.74 2.793 1.74 4.58 0 .27-.025.637-.098 1.102zm7.177-2.155c-.368-1.985-1.764-3.012-3.503-3.012-1.96 0-3.331 1.15-3.7 3.012z"/></g></g></g></svg>